<?xml version="1.0" standalone="no"?>
<!DOCTYPE svg PUBLIC "-//W3C//DTD SVG 20010904//EN"
 "http://www.w3.org/TR/2001/REC-SVG-20010904/DTD/svg10.dtd">
<svg version="1.0" xmlns="http://www.w3.org/2000/svg"
 width="334.000000pt" height="278.000000pt" viewBox="0 0 334.000000 278.000000"
 preserveAspectRatio="xMidYMid meet">

<g transform="translate(0.000000,278.000000) scale(0.100000,-0.100000)"
fill="#2596be" stroke="none">
<path d="M106 2750 c-41 -13 -74 -48 -86 -89 -6 -23 -10 -486 -10 -1275 0
-1223 0 -1240 20 -1281 40 -83 -110 -76 1652 -73 l1568 3 32 33 33 32 3 1278
c2 942 -1 1284 -9 1305 -6 15 -26 38 -43 50 l-31 22 -1550 2 c-854 1 -1563 -2
-1579 -7z m1600 -275 c48 -20 70 -71 51 -117 -18 -42 -37 -58 -81 -65 -31 -5
-40 -1 -73 32 l-37 37 -52 -16 c-145 -46 -289 -204 -311 -342 -6 -37 -19 -52
-34 -37 -12 12 15 104 53 175 57 107 206 224 311 243 25 5 38 14 43 29 8 27
34 56 59 67 28 11 31 11 71 -6z m270 -173 c83 -60 142 -145 180 -258 21 -64
25 -91 22 -167 -3 -83 -1 -93 20 -114 49 -49 18 -141 -54 -159 -51 -13 -114
39 -114 96 0 46 50 100 93 100 23 0 32 79 18 164 -18 112 -67 202 -156 284
-41 38 -75 72 -75 75 0 15 29 6 66 -21z m-696 -537 c30 -31 34 -93 6 -124 -17
-19 -17 -21 11 -57 42 -56 134 -119 210 -146 101 -34 243 -32 334 5 74 31 89
33 89 13 0 -32 -154 -77 -266 -77 -142 0 -249 46 -359 155 -56 55 -77 69 -103
71 -49 3 -87 44 -87 94 0 89 101 130 165 66z m-572 -672 c5 -10 24 -69 42
-131 19 -64 37 -107 40 -100 4 7 17 58 30 113 32 145 21 135 155 135 62 0 116
-4 119 -8 4 -7 -71 -354 -90 -414 -4 -13 0 -18 14 -18 10 0 21 -2 24 -5 6 -6
-65 -315 -76 -333 -5 -8 -45 -12 -121 -12 -99 0 -116 2 -123 18 -5 9 -29 82
-52 162 -24 80 -47 149 -51 153 -4 5 -21 -53 -39 -130 -17 -76 -35 -151 -39
-168 l-7 -30 -122 -3 c-116 -2 -122 -2 -122 17 0 11 16 86 35 167 19 80 35
148 35 150 0 2 -9 4 -20 4 -11 0 -20 6 -20 14 0 14 86 398 95 424 3 9 41 12
144 12 124 0 141 -2 149 -17z m865 -178 c76 -32 117 -102 117 -199 0 -42 2
-46 25 -46 28 0 31 -13 14 -72 l-10 -38 -174 0 c-193 0 -202 -4 -149 -57 24
-24 30 -25 104 -21 50 3 88 11 104 21 28 19 96 23 96 7 0 -6 -7 -40 -16 -76
-20 -78 -30 -86 -145 -115 -63 -16 -101 -20 -155 -16 -203 15 -296 141 -248
332 5 22 3 25 -20 25 -32 0 -32 -1 -2 58 81 161 311 259 459 197z m1313 -13
c74 -38 114 -104 114 -187 0 -42 2 -45 26 -45 26 0 26 -2 20 -42 -25 -157
-154 -287 -315 -318 -57 -11 -163 0 -202 20 -35 18 -79 61 -97 95 -19 35 -21
164 -4 208 11 25 10 27 -13 27 -31 0 -31 9 0 69 46 91 128 157 235 188 63 18
186 10 236 -15z m-815 -41 c21 -44 28 -52 35 -39 5 9 26 35 47 57 l38 41 135
0 c81 0 134 -4 132 -9 -1 -6 -52 -62 -111 -125 -89 -95 -104 -116 -86 -116
l22 0 -21 -23 -22 -24 69 -146 c38 -80 67 -148 63 -151 -3 -3 -66 -6 -139 -6
l-134 0 -22 50 c-12 27 -25 50 -28 50 -3 0 -27 -22 -53 -50 l-47 -50 -136 0
c-80 0 -133 4 -131 9 2 6 63 73 136 151 116 123 131 143 122 160 -6 11 -21 20
-34 20 -20 0 -31 18 -80 119 -31 66 -56 125 -56 131 0 7 44 10 138 8 l137 -3
26 -54z"/>
<path d="M1385 760 c-12 -4 -27 -15 -34 -24 -12 -14 -6 -16 68 -16 84 0 97 8
59 34 -24 17 -61 20 -93 6z"/>
<path d="M2688 738 c-8 -7 -23 -25 -32 -40 -17 -26 -17 -27 6 -30 24 -3 24 -3
12 -85 -9 -61 1 -93 31 -93 30 0 58 38 79 109 9 30 16 56 16 58 0 2 -10 3 -23
3 -19 0 -25 7 -33 42 -10 46 -28 57 -56 36z"/>
</g>
</svg>
